<mxfile host="app.diagrams.net" modified="2023-02-11T10:54:37.923Z" agent="5.0 (Macintosh; Intel Mac OS X 10_15_4) AppleWebKit/537.36 (KHTML, like Gecko) Chrome/108.0.0.0 Safari/537.36" etag="I-2uMSGNOD_jLH1Pu_0s" version="20.8.20" type="github">
  <diagram name="Page-1" id="xhp-JXf3OELfphHlDZzh">
    <mxGraphModel dx="794" dy="516" grid="1" gridSize="10" guides="1" tooltips="1" connect="1" arrows="1" fold="1" page="1" pageScale="1" pageWidth="827" pageHeight="1169" math="0" shadow="0">
      <root>
        <mxCell id="0" />
        <mxCell id="1" parent="0" />
        <mxCell id="HYOHnKEq6Wh98C0SEMnV-3" value="" style="edgeStyle=orthogonalEdgeStyle;rounded=0;orthogonalLoop=1;jettySize=auto;html=1;" edge="1" parent="1" source="HYOHnKEq6Wh98C0SEMnV-2" target="HYOHnKEq6Wh98C0SEMnV-1">
          <mxGeometry relative="1" as="geometry" />
        </mxCell>
        <mxCell id="HYOHnKEq6Wh98C0SEMnV-2" value="Pedal" style="shape=image;html=1;verticalAlign=top;verticalLabelPosition=bottom;labelBackgroundColor=#ffffff;imageAspect=0;aspect=fixed;image=https://cdn1.iconfinder.com/data/icons/racing-13/512/Pedals-128.png" vertex="1" parent="1">
          <mxGeometry x="20" y="140" width="80" height="80" as="geometry" />
        </mxCell>
        <mxCell id="HYOHnKEq6Wh98C0SEMnV-5" value="" style="group" vertex="1" connectable="0" parent="1">
          <mxGeometry x="140" y="162" width="130" height="90" as="geometry" />
        </mxCell>
        <mxCell id="HYOHnKEq6Wh98C0SEMnV-10" value="" style="group" vertex="1" connectable="0" parent="HYOHnKEq6Wh98C0SEMnV-5">
          <mxGeometry width="130" height="89.99999999999999" as="geometry" />
        </mxCell>
        <mxCell id="HYOHnKEq6Wh98C0SEMnV-4" value="" style="rounded=0;whiteSpace=wrap;html=1;" vertex="1" parent="HYOHnKEq6Wh98C0SEMnV-10">
          <mxGeometry width="130" height="89.99999999999999" as="geometry" />
        </mxCell>
        <mxCell id="HYOHnKEq6Wh98C0SEMnV-1" value="ECU" style="sketch=0;pointerEvents=1;shadow=0;dashed=0;html=1;strokeColor=none;fillColor=#434445;aspect=fixed;labelPosition=center;verticalLabelPosition=bottom;verticalAlign=top;align=center;outlineConnect=0;shape=mxgraph.vvd.cpu;movable=0;resizable=0;rotatable=0;deletable=0;editable=0;locked=1;connectable=0;" vertex="1" parent="HYOHnKEq6Wh98C0SEMnV-10">
          <mxGeometry width="34.61538461538461" height="34.61538461538461" as="geometry" />
        </mxCell>
        <mxCell id="HYOHnKEq6Wh98C0SEMnV-6" value="Firmware" style="aspect=fixed;html=1;points=[];align=center;image;fontSize=12;image=img/lib/azure2/general/Code.svg;" vertex="1" parent="HYOHnKEq6Wh98C0SEMnV-10">
          <mxGeometry x="52" y="20" width="38" height="30.88" as="geometry" />
        </mxCell>
        <mxCell id="HYOHnKEq6Wh98C0SEMnV-17" value="" style="edgeStyle=orthogonalEdgeStyle;rounded=0;orthogonalLoop=1;jettySize=auto;html=1;" edge="1" parent="1" source="HYOHnKEq6Wh98C0SEMnV-8" target="HYOHnKEq6Wh98C0SEMnV-15">
          <mxGeometry relative="1" as="geometry" />
        </mxCell>
        <mxCell id="HYOHnKEq6Wh98C0SEMnV-8" value="Motor" style="sketch=0;outlineConnect=0;fontColor=#232F3E;gradientColor=none;fillColor=#4D27AA;strokeColor=none;dashed=0;verticalLabelPosition=bottom;verticalAlign=top;align=center;html=1;fontSize=12;fontStyle=0;aspect=fixed;pointerEvents=1;shape=mxgraph.aws4.emr_engine;" vertex="1" parent="1">
          <mxGeometry x="20" y="365.5" width="78" height="59" as="geometry" />
        </mxCell>
        <mxCell id="HYOHnKEq6Wh98C0SEMnV-11" value="" style="group" vertex="1" connectable="0" parent="1">
          <mxGeometry x="138" y="350" width="130" height="90" as="geometry" />
        </mxCell>
        <mxCell id="HYOHnKEq6Wh98C0SEMnV-12" value="" style="group" vertex="1" connectable="0" parent="HYOHnKEq6Wh98C0SEMnV-11">
          <mxGeometry width="130" height="89.99999999999999" as="geometry" />
        </mxCell>
        <mxCell id="HYOHnKEq6Wh98C0SEMnV-13" value="" style="rounded=0;whiteSpace=wrap;html=1;" vertex="1" parent="HYOHnKEq6Wh98C0SEMnV-12">
          <mxGeometry width="130" height="89.99999999999999" as="geometry" />
        </mxCell>
        <mxCell id="HYOHnKEq6Wh98C0SEMnV-14" value="ECU" style="sketch=0;pointerEvents=1;shadow=0;dashed=0;html=1;strokeColor=none;fillColor=#434445;aspect=fixed;labelPosition=center;verticalLabelPosition=bottom;verticalAlign=top;align=center;outlineConnect=0;shape=mxgraph.vvd.cpu;movable=0;resizable=0;rotatable=0;deletable=0;editable=0;locked=1;connectable=0;" vertex="1" parent="HYOHnKEq6Wh98C0SEMnV-12">
          <mxGeometry width="34.61538461538461" height="34.61538461538461" as="geometry" />
        </mxCell>
        <mxCell id="HYOHnKEq6Wh98C0SEMnV-15" value="Firmware" style="aspect=fixed;html=1;points=[];align=center;image;fontSize=12;image=img/lib/azure2/general/Code.svg;" vertex="1" parent="HYOHnKEq6Wh98C0SEMnV-12">
          <mxGeometry x="52" y="20" width="38" height="30.88" as="geometry" />
        </mxCell>
      </root>
    </mxGraphModel>
  </diagram>
</mxfile>
